<?xml version="1.0" encoding="UTF-8"?>
<svg id="Layer_2" data-name="Layer 2" xmlns="http://www.w3.org/2000/svg" viewBox="0 0 1090.61 26.78">
  <defs>
    <style>
      .cls-1 {
        stroke-dasharray: 0 0 0 0 0 0 9.03 9.03 9.03 9.03 9.03 9.03;
      }

      .cls-1, .cls-2, .cls-3 {
        fill: none;
        stroke: #4a494a;
        stroke-linecap: round;
        stroke-miterlimit: 10;
        stroke-width: 4px;
      }

      .cls-3 {
        stroke-dasharray: 0 0 0 0 9.03 9.03 9.03 9.03;
      }
    </style>
  </defs>
  <g id="Layer_1-2" data-name="Layer 1">
    <g>
      <line class="cls-2" x1="2" y1="22.67" x2="6.28" y2="24.07"/>
      <polyline class="cls-3" points="15.15 23.97 18.62 22.94 24.16 19.82 29.7 15.7 35.24 11.23 40.78 7.09 41.37 6.75"/>
      <polyline class="cls-1" points="45.29 4.51 46.32 3.92 51.87 2.23 57.41 2.26 62.95 4.02 68.49 7.24 74.03 11.4 79.57 15.88 85.11 19.97 90.65 23.04 96.19 24.61 101.73 24.45 107.27 22.57 112.81 19.27 118.35 15.06 123.89 10.59 129.43 6.55 134.97 3.58 140.51 2.12 146.05 2.42 151.6 4.41 157.14 7.8 162.68 12.05 168.22 16.51 173.76 20.49 179.3 23.37 184.84 24.7 190.38 24.28 195.92 22.17 201.46 18.7 207 14.4 212.54 9.95 218.08 6.04 223.62 3.26 229.16 2.05 234.7 2.61 240.24 4.83 245.79 8.38 251.33 12.71 256.87 17.14 262.41 20.99 267.95 23.67 273.49 24.75 279.03 24.07 284.57 21.73 290.11 18.11 295.65 13.75 301.19 9.33 306.73 5.55 312.27 2.98 317.81 2.02 323.35 2.83 328.89 5.28 334.43 8.98 339.98 13.37 345.52 17.76 351.06 21.47 356.6 23.93 362.14 24.76 367.68 23.82 373.22 21.27 378.76 17.5 384.3 13.09 389.84 8.73 395.38 5.09 400.92 2.73 406.46 2.03 412 3.09 417.54 5.75 423.08 9.59 428.62 14.02 434.17 18.36 439.71 21.92 445.25 24.16 450.79 24.73 456.33 23.55 461.87 20.79 467.41 16.88 472.95 12.43 478.49 8.13 484.03 4.65 489.57 2.52 495.11 2.08 500.65 3.39 506.19 6.25 511.73 10.22 517.27 14.68 522.81 18.94 528.36 22.34 533.9 24.35 539.44 24.67 544.98 23.23 550.52 20.27 556.06 16.25 561.6 11.78 562.25 11.23 567.79 7.09 573.33 3.92 578.87 2.23 584.42 2.26 589.96 4.02 595.5 7.24 601.04 11.4 606.58 15.88 612.12 19.97 617.66 23.04 623.2 24.61 628.74 24.45 634.28 22.57 639.82 19.27 645.36 15.06 650.9 10.59 656.44 6.55 661.98 3.58 667.52 2.12 673.06 2.42 678.61 4.41 684.15 7.8 689.69 12.05 695.23 16.51 700.77 20.49 706.31 23.37 711.85 24.7 717.39 24.28 722.93 22.17 728.47 18.7 734.01 14.4 739.55 9.95 745.09 6.04 750.63 3.26 756.17 2.05 761.71 2.61 767.25 4.83 772.8 8.38 778.34 12.71 783.88 17.14 789.42 20.99 794.96 23.67 800.5 24.75 806.04 24.07 811.58 21.73 817.12 18.11 822.66 13.75 828.2 9.33 833.74 5.55 839.28 2.98 844.82 2.02 850.36 2.83 855.9 5.28 861.44 8.98 866.98 13.37 872.53 17.76 878.07 21.47 883.61 23.93 889.15 24.76 894.69 23.82 900.23 21.27 905.77 17.5 911.31 13.09 916.85 8.73 922.39 5.09 927.93 2.73 933.47 2.03 939.01 3.09 944.55 5.75 950.09 9.59 955.63 14.02 961.17 18.36 966.72 21.92 972.26 24.16 977.8 24.73 983.34 23.55 988.88 20.79 994.42 16.88 999.96 12.43 1005.5 8.13 1011.04 4.65 1016.58 2.52 1022.12 2.08 1027.66 3.39 1033.2 6.25 1038.74 10.22 1044.28 14.68 1049.82 18.94 1055.36 22.34 1060.91 24.35 1066.45 24.67 1071.99 23.23 1077.53 20.27 1081.53 17.36"/>
      <line class="cls-2" x1="1085.11" y1="14.6" x2="1088.61" y2="11.78"/>
    </g>
  </g>
</svg>